<?xml version="1.0" encoding="UTF-8"?>
<!-- Do not edit this file with editors other than draw.io -->
<!DOCTYPE svg PUBLIC "-//W3C//DTD SVG 1.1//EN" "http://www.w3.org/Graphics/SVG/1.1/DTD/svg11.dtd">
<svg xmlns="http://www.w3.org/2000/svg" style="background: transparent; background-color: transparent; color-scheme: light dark;" xmlns:xlink="http://www.w3.org/1999/xlink" version="1.1" width="261px" height="81px" viewBox="-0.5 -0.5 261 81" content="&lt;mxfile host=&quot;app.diagrams.net&quot; agent=&quot;Mozilla/5.0 (Windows NT 10.0; Win64; x64) AppleWebKit/537.36 (KHTML, like Gecko) Chrome/139.0.0.0 Safari/537.36&quot; version=&quot;28.1.2&quot;&gt;&#10;  &lt;diagram name=&quot;Página-1&quot; id=&quot;ft_0UDdngxv1kpUVtpC5&quot;&gt;&#10;    &lt;mxGraphModel dx=&quot;1042&quot; dy=&quot;562&quot; grid=&quot;1&quot; gridSize=&quot;10&quot; guides=&quot;1&quot; tooltips=&quot;1&quot; connect=&quot;1&quot; arrows=&quot;1&quot; fold=&quot;1&quot; page=&quot;1&quot; pageScale=&quot;1&quot; pageWidth=&quot;827&quot; pageHeight=&quot;1169&quot; math=&quot;0&quot; shadow=&quot;0&quot;&gt;&#10;      &lt;root&gt;&#10;        &lt;mxCell id=&quot;0&quot; /&gt;&#10;        &lt;mxCell id=&quot;1&quot; parent=&quot;0&quot; /&gt;&#10;        &lt;mxCell id=&quot;s-A93kwdWezKnEzQZUWk-3&quot; value=&quot;&quot; style=&quot;edgeStyle=orthogonalEdgeStyle;rounded=0;orthogonalLoop=1;jettySize=auto;html=1;&quot; edge=&quot;1&quot; parent=&quot;1&quot; source=&quot;P8yycNXyzoiEeMhcW1G3-2&quot; target=&quot;s-A93kwdWezKnEzQZUWk-1&quot;&gt;&#10;          &lt;mxGeometry relative=&quot;1&quot; as=&quot;geometry&quot; /&gt;&#10;        &lt;/mxCell&gt;&#10;        &lt;mxCell id=&quot;P8yycNXyzoiEeMhcW1G3-2&quot; value=&quot;&quot; style=&quot;shape=mxgraph.networks2.icon;aspect=fixed;fillColor=#EDEDED;strokeColor=#000000;gradientColor=#5B6163;network2IconShadow=1;network2bgFillColor=none;labelPosition=center;verticalLabelPosition=bottom;align=center;verticalAlign=top;network2Icon=mxgraph.networks2.pc;network2IconYOffset=-0.0593;network2IconW=0.9999;network2IconH=0.7096;&quot; parent=&quot;1&quot; vertex=&quot;1&quot;&gt;&#10;          &lt;mxGeometry x=&quot;320&quot; y=&quot;250&quot; width=&quot;49.995&quot; height=&quot;35.480000000000004&quot; as=&quot;geometry&quot; /&gt;&#10;        &lt;/mxCell&gt;&#10;        &lt;mxCell id=&quot;s-A93kwdWezKnEzQZUWk-2&quot; value=&quot;&quot; style=&quot;edgeStyle=orthogonalEdgeStyle;rounded=0;orthogonalLoop=1;jettySize=auto;html=1;&quot; edge=&quot;1&quot; parent=&quot;1&quot; source=&quot;P8yycNXyzoiEeMhcW1G3-3&quot; target=&quot;s-A93kwdWezKnEzQZUWk-1&quot;&gt;&#10;          &lt;mxGeometry relative=&quot;1&quot; as=&quot;geometry&quot; /&gt;&#10;        &lt;/mxCell&gt;&#10;        &lt;mxCell id=&quot;P8yycNXyzoiEeMhcW1G3-3&quot; value=&quot;&quot; style=&quot;shape=mxgraph.networks2.icon;aspect=fixed;fillColor=#EDEDED;strokeColor=#000000;gradientColor=#5B6163;network2IconShadow=1;network2bgFillColor=none;labelPosition=center;verticalLabelPosition=bottom;align=center;verticalAlign=top;network2Icon=mxgraph.networks2.desktop_pc;network2IconXOffset=-0.0034;network2IconYOffset=0.00035;network2IconW=0.453;network2IconH=0.9995;&quot; parent=&quot;1&quot; vertex=&quot;1&quot;&gt;&#10;          &lt;mxGeometry x=&quot;110&quot; y=&quot;235.51&quot; width=&quot;22.650000000000002&quot; height=&quot;49.975&quot; as=&quot;geometry&quot; /&gt;&#10;        &lt;/mxCell&gt;&#10;        &lt;mxCell id=&quot;s-A93kwdWezKnEzQZUWk-1&quot; value=&quot;&quot; style=&quot;shape=step;perimeter=stepPerimeter;whiteSpace=wrap;html=1;fixedSize=1;verticalAlign=top;fillColor=#EDEDED;strokeColor=#000000;gradientColor=#5B6163;&quot; vertex=&quot;1&quot; parent=&quot;1&quot;&gt;&#10;          &lt;mxGeometry x=&quot;163.975&quot; y=&quot;220.4975&quot; width=&quot;120&quot; height=&quot;80&quot; as=&quot;geometry&quot; /&gt;&#10;        &lt;/mxCell&gt;&#10;      &lt;/root&gt;&#10;    &lt;/mxGraphModel&gt;&#10;  &lt;/diagram&gt;&#10;&lt;/mxfile&gt;&#10;" resource="https://app.diagrams.net/?title=C%C3%B3pia%20do%20Diagrama%20sem%20nome.drawio&amp;client=1#Hnobrecavalcante%2FLibra%2Fmain%2FC%C3%B3pia%20do%20Diagrama%20sem%20nome.drawio.svg#%7B%22pageId%22%3A%22ft_0UDdngxv1kpUVtpC5%22%7D"><defs><linearGradient x1="0%" y1="0%" x2="0%" y2="100%" id="drawio-svg-irDGjyBESg3LroDN9FsU-gradient-light-dark_ededed_212121_-1-light-dark_5b6163_979c9e_-1-s-0"><stop offset="0%" stop-color="#EDEDED" stop-opacity="1" style="stop-color: light-dark(rgb(237, 237, 237), rgb(33, 33, 33)); stop-opacity: 1;"/><stop offset="100%" stop-color="#5B6163" stop-opacity="1" style="stop-color: light-dark(rgb(91, 97, 99), rgb(151, 156, 158)); stop-opacity: 1;"/></linearGradient></defs><g><g data-cell-id="0"><g data-cell-id="1"><g data-cell-id="s-A93kwdWezKnEzQZUWk-3"><g><path d="M 210 47.8 L 190 47.8 L 190 40.5 L 180.34 40.5" fill="none" stroke="#000000" stroke-miterlimit="10" pointer-events="stroke" style="stroke: light-dark(rgb(0, 0, 0), rgb(255, 255, 255));"/><path d="M 175.09 40.5 L 182.09 37 L 180.34 40.5 L 182.09 44 Z" fill="#000000" stroke="#000000" stroke-miterlimit="10" pointer-events="all" style="fill: light-dark(rgb(0, 0, 0), rgb(255, 255, 255)); stroke: light-dark(rgb(0, 0, 0), rgb(255, 255, 255));"/></g></g><g data-cell-id="P8yycNXyzoiEeMhcW1G3-2"><g><path d="M 239.66 47.93 L 210.89 47.93 C 210.62 47.93 210.39 47.7 210.39 47.43 L 210.39 30.8 C 210.39 30.53 210.62 30.3 210.89 30.3 L 239.66 30.3 C 239.94 30.3 240.16 30.53 240.16 30.8 L 240.16 47.43 C 240.16 47.7 239.94 47.93 239.66 47.93 Z M 239.98 63.99 L 239.98 57.12 C 239.98 56.57 239.53 56.12 238.98 56.12 L 211.53 56.12 C 210.97 56.12 210.53 56.57 210.53 57.12 L 210.53 63.98 C 210.53 64.53 210.97 64.98 211.53 64.98 L 238.98 64.98 C 239.53 64.99 239.98 64.53 239.98 63.99 Z M 258.5 31.02 L 245.38 31.02 C 245.1 31.02 244.88 31.25 244.88 31.52 L 244.88 62.55 C 244.88 62.82 245.1 63.05 245.38 63.05 L 258.5 63.05 C 258.77 63.05 259 62.82 259 62.55 L 259 31.52 C 259 31.25 258.77 31.02 258.5 31.02 Z" fill="#ededed" stroke="none" pointer-events="all" style="fill: light-dark(rgb(237, 237, 237), rgb(33, 33, 33));"/><path d="M 251.94 36.22 C 250.83 36.22 249.94 35.33 249.94 34.22 C 249.94 33.12 250.83 32.22 251.94 32.22 C 253.04 32.22 253.94 33.12 253.94 34.22 C 253.94 35.33 253.03 36.22 251.94 36.22 Z M 240.22 30.32 L 240.2 30.32 L 240.16 30.27 L 240.15 30.25 C 239.97 30.1 239.74 30 239.47 30 L 211 30 C 210.45 30 210 30.45 210 31 L 210 47.23 C 210 47.51 210.11 47.75 210.28 47.93 L 210.3 47.95 C 210.48 48.13 210.72 48.23 211 48.23 L 222.24 48.23 L 222.24 51.21 L 218.63 51.21 C 218.35 51.21 218.13 51.44 218.13 51.71 L 218.13 52.05 C 218.13 52.33 218.35 52.55 218.63 52.55 L 231.92 52.55 C 232.19 52.55 232.42 52.33 232.42 52.05 L 232.42 51.71 C 232.42 51.44 232.19 51.21 231.92 51.21 L 228.32 51.21 L 228.32 48.23 L 239.47 48.23 C 240.03 48.23 240.47 47.79 240.47 47.23 L 240.47 31 C 240.47 30.74 240.38 30.5 240.22 30.32 Z M 239.47 47.23 L 211 47.23 L 211 31 L 239.47 31 L 239.47 47.23 C 239.47 47.23 239.47 47.23 239.47 47.23 Z M 257.08 58.18 L 246.79 58.18 C 246.79 58.18 246.79 58.18 246.79 58.18 C 246.51 58.18 246.29 58.4 246.29 58.68 C 246.29 58.95 246.51 59.18 246.79 59.18 L 257.08 59.18 C 257.08 59.18 257.08 59.18 257.08 59.18 C 257.36 59.18 257.58 58.96 257.58 58.68 C 257.58 58.41 257.36 58.18 257.08 58.18 Z M 257.08 55.53 L 246.79 55.52 C 246.79 55.52 246.79 55.52 246.79 55.52 C 246.51 55.52 246.29 55.75 246.29 56.02 C 246.29 56.3 246.51 56.52 246.79 56.52 L 257.08 56.53 C 257.08 56.53 257.08 56.53 257.08 56.53 C 257.36 56.53 257.58 56.3 257.58 56.03 C 257.58 55.75 257.36 55.53 257.08 55.53 Z M 257.08 52.87 L 246.79 52.86 L 246.79 52.86 C 246.51 52.86 246.29 53.09 246.29 53.36 C 246.29 53.64 246.51 53.86 246.79 53.86 L 257.08 53.87 C 257.08 53.87 257.08 53.87 257.08 53.87 C 257.36 53.87 257.58 53.64 257.58 53.37 C 257.58 53.09 257.36 52.87 257.08 52.87 Z M 257.08 50.2 L 246.79 50.2 C 246.79 50.2 246.79 50.2 246.79 50.2 C 246.51 50.2 246.29 50.43 246.29 50.7 C 246.29 50.98 246.51 51.2 246.79 51.2 L 257.08 51.2 C 257.08 51.2 257.08 51.2 257.08 51.2 C 257.36 51.2 257.58 50.98 257.58 50.7 C 257.58 50.43 257.36 50.2 257.08 50.2 Z M 257.08 47.55 L 246.79 47.54 L 246.79 47.54 C 246.51 47.54 246.29 47.77 246.29 48.04 C 246.29 48.32 246.51 48.54 246.79 48.54 L 257.08 48.55 C 257.08 48.55 257.08 48.55 257.08 48.55 C 257.36 48.55 257.58 48.32 257.58 48.05 C 257.58 47.77 257.36 47.55 257.08 47.55 Z M 246.79 48.54 L 257.08 48.55 C 257.08 48.55 257.08 48.55 257.08 48.55 C 257.36 48.55 257.58 48.32 257.58 48.05 C 257.58 47.77 257.36 47.55 257.08 47.55 L 246.79 47.54 L 246.79 47.54 C 246.51 47.54 246.29 47.77 246.29 48.04 C 246.29 48.32 246.51 48.54 246.79 48.54 Z M 257.08 50.2 L 246.79 50.2 C 246.79 50.2 246.79 50.2 246.79 50.2 C 246.51 50.2 246.29 50.43 246.29 50.7 C 246.29 50.98 246.51 51.2 246.79 51.2 L 257.08 51.2 C 257.08 51.2 257.08 51.2 257.08 51.2 C 257.36 51.2 257.58 50.98 257.58 50.7 C 257.58 50.43 257.36 50.2 257.08 50.2 Z M 257.08 52.87 L 246.79 52.86 L 246.79 52.86 C 246.51 52.86 246.29 53.09 246.29 53.36 C 246.29 53.64 246.51 53.86 246.79 53.86 L 257.08 53.87 C 257.08 53.87 257.08 53.87 257.08 53.87 C 257.36 53.87 257.58 53.64 257.58 53.37 C 257.58 53.09 257.36 52.87 257.08 52.87 Z M 257.08 55.53 L 246.79 55.52 C 246.79 55.52 246.79 55.52 246.79 55.52 C 246.51 55.52 246.29 55.75 246.29 56.02 C 246.29 56.3 246.51 56.52 246.79 56.52 L 257.08 56.53 C 257.08 56.53 257.08 56.53 257.08 56.53 C 257.36 56.53 257.58 56.3 257.58 56.03 C 257.58 55.75 257.36 55.53 257.08 55.53 Z M 257.08 58.18 L 246.79 58.18 C 246.79 58.18 246.79 58.18 246.79 58.18 C 246.51 58.18 246.29 58.4 246.29 58.68 C 246.29 58.95 246.51 59.18 246.79 59.18 L 257.08 59.18 C 257.08 59.18 257.08 59.18 257.08 59.18 C 257.36 59.18 257.58 58.96 257.58 58.68 C 257.58 58.41 257.36 58.18 257.08 58.18 Z M 259.64 30.56 C 259.58 30.49 259.52 30.43 259.45 30.37 C 259.19 30.15 258.86 30.02 258.5 30.02 L 245.38 30.02 C 244.55 30.02 243.88 30.7 243.88 31.52 L 243.88 62.55 C 243.88 63.29 244.43 63.92 245.14 64.03 L 245.14 64.98 C 245.14 65.25 245.37 65.48 245.64 65.48 L 258.23 65.48 C 258.5 65.48 258.73 65.25 258.73 64.98 L 258.73 64.03 C 259.44 63.91 260 63.29 260 62.55 L 260 31.52 C 260 31.16 259.86 30.82 259.64 30.56 Z M 259 62.55 C 259 62.82 258.77 63.05 258.5 63.05 L 245.38 63.05 C 245.1 63.05 244.88 62.82 244.88 62.55 L 244.88 31.52 C 244.88 31.25 245.1 31.02 245.38 31.02 L 258.5 31.02 C 258.77 31.02 259 31.25 259 31.52 L 259 62.55 Z M 257.08 47.55 L 246.79 47.54 L 246.79 47.54 C 246.51 47.54 246.29 47.77 246.29 48.04 C 246.29 48.32 246.51 48.54 246.79 48.54 L 257.08 48.55 C 257.08 48.55 257.08 48.55 257.08 48.55 C 257.36 48.55 257.58 48.32 257.58 48.05 C 257.58 47.77 257.36 47.55 257.08 47.55 Z M 257.08 50.2 L 246.79 50.2 C 246.79 50.2 246.79 50.2 246.79 50.2 C 246.51 50.2 246.29 50.43 246.29 50.7 C 246.29 50.98 246.51 51.2 246.79 51.2 L 257.08 51.2 C 257.08 51.2 257.08 51.2 257.08 51.2 C 257.36 51.2 257.58 50.98 257.58 50.7 C 257.58 50.43 257.36 50.2 257.08 50.2 Z M 257.08 52.87 L 246.79 52.86 L 246.79 52.86 C 246.51 52.86 246.29 53.09 246.29 53.36 C 246.29 53.64 246.51 53.86 246.79 53.86 L 257.08 53.87 C 257.08 53.87 257.08 53.87 257.08 53.87 C 257.36 53.87 257.58 53.64 257.58 53.37 C 257.58 53.09 257.36 52.87 257.08 52.87 Z M 257.08 55.53 L 246.79 55.52 C 246.79 55.52 246.79 55.52 246.79 55.52 C 246.51 55.52 246.29 55.75 246.29 56.02 C 246.29 56.3 246.51 56.52 246.79 56.52 L 257.08 56.53 C 257.08 56.53 257.08 56.53 257.08 56.53 C 257.36 56.53 257.58 56.3 257.58 56.03 C 257.58 55.75 257.36 55.53 257.08 55.53 Z M 257.08 58.18 L 246.79 58.18 C 246.79 58.18 246.79 58.18 246.79 58.18 C 246.51 58.18 246.29 58.4 246.29 58.68 C 246.29 58.95 246.51 59.18 246.79 59.18 L 257.08 59.18 C 257.08 59.18 257.08 59.18 257.08 59.18 C 257.36 59.18 257.58 58.96 257.58 58.68 C 257.58 58.41 257.36 58.18 257.08 58.18 Z M 257.08 58.18 L 246.79 58.18 C 246.79 58.18 246.79 58.18 246.79 58.18 C 246.51 58.18 246.29 58.4 246.29 58.68 C 246.29 58.95 246.51 59.18 246.79 59.18 L 257.08 59.18 C 257.08 59.18 257.08 59.18 257.08 59.18 C 257.36 59.18 257.58 58.96 257.58 58.68 C 257.58 58.41 257.36 58.18 257.08 58.18 Z M 257.08 55.53 L 246.79 55.52 C 246.79 55.52 246.79 55.52 246.79 55.52 C 246.51 55.52 246.29 55.75 246.29 56.02 C 246.29 56.3 246.51 56.52 246.79 56.52 L 257.08 56.53 C 257.08 56.53 257.08 56.53 257.08 56.53 C 257.36 56.53 257.58 56.3 257.58 56.03 C 257.58 55.75 257.36 55.53 257.08 55.53 Z M 257.08 52.87 L 246.79 52.86 L 246.79 52.86 C 246.51 52.86 246.29 53.09 246.29 53.36 C 246.29 53.64 246.51 53.86 246.79 53.86 L 257.08 53.87 C 257.08 53.87 257.08 53.87 257.08 53.87 C 257.36 53.87 257.58 53.64 257.58 53.37 C 257.58 53.09 257.36 52.87 257.08 52.87 Z M 257.08 50.2 L 246.79 50.2 C 246.79 50.2 246.79 50.2 246.79 50.2 C 246.51 50.2 246.29 50.43 246.29 50.7 C 246.29 50.98 246.51 51.2 246.79 51.2 L 257.08 51.2 C 257.08 51.2 257.08 51.2 257.08 51.2 C 257.36 51.2 257.58 50.98 257.58 50.7 C 257.58 50.43 257.36 50.2 257.08 50.2 Z M 257.08 47.55 L 246.79 47.54 L 246.79 47.54 C 246.51 47.54 246.29 47.77 246.29 48.04 C 246.29 48.32 246.51 48.54 246.79 48.54 L 257.08 48.55 C 257.08 48.55 257.08 48.55 257.08 48.55 C 257.36 48.55 257.58 48.32 257.58 48.05 C 257.58 47.77 257.36 47.55 257.08 47.55 Z M 257.08 47.55 L 246.79 47.54 L 246.79 47.54 C 246.51 47.54 246.29 47.77 246.29 48.04 C 246.29 48.32 246.51 48.54 246.79 48.54 L 257.08 48.55 C 257.08 48.55 257.08 48.55 257.08 48.55 C 257.36 48.55 257.58 48.32 257.58 48.05 C 257.58 47.77 257.36 47.55 257.08 47.55 Z M 257.08 50.2 L 246.79 50.2 C 246.79 50.2 246.79 50.2 246.79 50.2 C 246.51 50.2 246.29 50.43 246.29 50.7 C 246.29 50.98 246.51 51.2 246.79 51.2 L 257.08 51.2 C 257.08 51.2 257.08 51.2 257.08 51.2 C 257.36 51.2 257.58 50.98 257.58 50.7 C 257.58 50.43 257.36 50.2 257.08 50.2 Z M 257.08 52.87 L 246.79 52.86 L 246.79 52.86 C 246.51 52.86 246.29 53.09 246.29 53.36 C 246.29 53.64 246.51 53.86 246.79 53.86 L 257.08 53.87 C 257.08 53.87 257.08 53.87 257.08 53.87 C 257.36 53.87 257.58 53.64 257.58 53.37 C 257.58 53.09 257.36 52.87 257.08 52.87 Z M 257.08 55.53 L 246.79 55.52 C 246.79 55.52 246.79 55.52 246.79 55.52 C 246.51 55.52 246.29 55.75 246.29 56.02 C 246.29 56.3 246.51 56.52 246.79 56.52 L 257.08 56.53 C 257.08 56.53 257.08 56.53 257.08 56.53 C 257.36 56.53 257.58 56.3 257.58 56.03 C 257.58 55.75 257.36 55.53 257.08 55.53 Z M 257.08 58.18 L 246.79 58.18 C 246.79 58.18 246.79 58.18 246.79 58.18 C 246.51 58.18 246.29 58.4 246.29 58.68 C 246.29 58.95 246.51 59.18 246.79 59.18 L 257.08 59.18 C 257.08 59.18 257.08 59.18 257.08 59.18 C 257.36 59.18 257.58 58.96 257.58 58.68 C 257.58 58.41 257.36 58.18 257.08 58.18 Z M 231.13 57.68 L 212.76 57.68 C 212.49 57.68 212.26 57.9 212.26 58.18 C 212.26 58.45 212.49 58.68 212.76 58.68 L 231.14 58.68 C 231.41 58.68 231.64 58.45 231.64 58.18 C 231.63 57.9 231.41 57.68 231.13 57.68 Z M 230.67 59.63 L 213.31 59.63 C 212.75 59.63 212.31 60.08 212.31 60.63 L 212.31 62.57 C 212.31 63.12 212.75 63.57 213.31 63.57 L 230.67 63.57 C 231.22 63.57 231.67 63.12 231.67 62.57 L 231.67 60.63 C 231.67 60.08 231.22 59.63 230.67 59.63 Z M 237.54 57.58 L 234.54 57.58 C 233.99 57.58 233.54 58.03 233.54 58.58 L 233.54 62.58 C 233.54 63.13 233.99 63.58 234.54 63.58 L 237.54 63.58 C 238.09 63.58 238.54 63.13 238.54 62.58 L 238.54 58.58 C 238.54 58.02 238.09 57.58 237.54 57.58 Z M 237.54 57.58 L 234.54 57.58 C 233.99 57.58 233.54 58.03 233.54 58.58 L 233.54 62.58 C 233.54 63.13 233.99 63.58 234.54 63.58 L 237.54 63.58 C 238.09 63.58 238.54 63.13 238.54 62.58 L 238.54 58.58 C 238.54 58.02 238.09 57.58 237.54 57.58 Z M 230.67 59.63 L 213.31 59.63 C 212.75 59.63 212.31 60.08 212.31 60.63 L 212.31 62.57 C 212.31 63.12 212.75 63.57 213.31 63.57 L 230.67 63.57 C 231.22 63.57 231.67 63.12 231.67 62.57 L 231.67 60.63 C 231.67 60.08 231.22 59.63 230.67 59.63 Z M 212.76 58.68 L 231.14 58.68 C 231.41 58.68 231.64 58.45 231.64 58.18 C 231.64 57.9 231.41 57.68 231.14 57.68 L 212.76 57.68 C 212.49 57.68 212.26 57.9 212.26 58.18 C 212.26 58.45 212.49 58.68 212.76 58.68 Z M 238.98 55.62 L 211.53 55.62 C 210.7 55.62 210.03 56.3 210.03 57.12 L 210.03 63.98 C 210.03 64.38 210.18 64.74 210.44 65.01 L 210.5 65.07 C 210.76 65.33 211.13 65.48 211.53 65.48 L 238.98 65.48 C 239.81 65.48 240.48 64.81 240.48 63.98 L 240.48 57.12 C 240.48 56.3 239.81 55.62 238.98 55.62 Z M 239.48 63.99 C 239.48 64.26 239.25 64.49 238.98 64.49 L 211.53 64.49 C 211.25 64.49 211.03 64.26 211.03 63.99 L 211.03 57.12 C 211.03 56.85 211.25 56.62 211.53 56.62 L 238.98 56.62 C 239.25 56.62 239.48 56.85 239.48 57.12 L 239.48 63.99 Z M 237.54 57.58 L 234.54 57.58 C 233.99 57.58 233.54 58.03 233.54 58.58 L 233.54 62.58 C 233.54 63.13 233.99 63.58 234.54 63.58 L 237.54 63.58 C 238.09 63.58 238.54 63.13 238.54 62.58 L 238.54 58.58 C 238.54 58.02 238.09 57.58 237.54 57.58 Z M 230.67 59.63 L 213.31 59.63 C 212.75 59.63 212.31 60.08 212.31 60.63 L 212.31 62.57 C 212.31 63.12 212.75 63.57 213.31 63.57 L 230.67 63.57 C 231.22 63.57 231.67 63.12 231.67 62.57 L 231.67 60.63 C 231.67 60.08 231.22 59.63 230.67 59.63 Z M 212.76 58.68 L 231.14 58.68 C 231.41 58.68 231.64 58.45 231.64 58.18 C 231.64 57.9 231.41 57.68 231.14 57.68 L 212.76 57.68 C 212.49 57.68 212.26 57.9 212.26 58.18 C 212.26 58.45 212.49 58.68 212.76 58.68 Z M 231.13 57.68 L 212.76 57.68 C 212.49 57.68 212.26 57.9 212.26 58.18 C 212.26 58.45 212.49 58.68 212.76 58.68 L 231.14 58.68 C 231.41 58.68 231.64 58.45 231.64 58.18 C 231.63 57.9 231.41 57.68 231.13 57.68 Z M 230.67 59.63 L 213.31 59.63 C 212.75 59.63 212.31 60.08 212.31 60.63 L 212.31 62.57 C 212.31 63.12 212.75 63.57 213.31 63.57 L 230.67 63.57 C 231.22 63.57 231.67 63.12 231.67 62.57 L 231.67 60.63 C 231.67 60.08 231.22 59.63 230.67 59.63 Z M 237.54 57.58 L 234.54 57.58 C 233.99 57.58 233.54 58.03 233.54 58.58 L 233.54 62.58 C 233.54 63.13 233.99 63.58 234.54 63.58 L 237.54 63.58 C 238.09 63.58 238.54 63.13 238.54 62.58 L 238.54 58.58 C 238.54 58.02 238.09 57.58 237.54 57.58 Z M 230.67 59.63 L 213.31 59.63 C 212.75 59.63 212.31 60.08 212.31 60.63 L 212.31 62.57 C 212.31 63.12 212.75 63.57 213.31 63.57 L 230.67 63.57 C 231.22 63.57 231.67 63.12 231.67 62.57 L 231.67 60.63 C 231.67 60.08 231.22 59.63 230.67 59.63 Z M 237.54 57.58 L 234.54 57.58 C 233.99 57.58 233.54 58.03 233.54 58.58 L 233.54 62.58 C 233.54 63.13 233.99 63.58 234.54 63.58 L 237.54 63.58 C 238.09 63.58 238.54 63.13 238.54 62.58 L 238.54 58.58 C 238.54 58.02 238.09 57.58 237.54 57.58 Z M 231.13 57.68 L 212.76 57.68 C 212.49 57.68 212.26 57.9 212.26 58.18 C 212.26 58.45 212.49 58.68 212.76 58.68 L 231.14 58.68 C 231.41 58.68 231.64 58.45 231.64 58.18 C 231.63 57.9 231.41 57.68 231.13 57.68 Z" fill="#000000" stroke="none" pointer-events="all" style="fill: light-dark(rgb(0, 0, 0), rgb(237, 237, 237));"/></g></g><g data-cell-id="s-A93kwdWezKnEzQZUWk-2"><g><path d="M 22.65 40.5 L 42.7 40.5 L 34 40.5 L 67.61 40.5" fill="none" stroke="#000000" stroke-miterlimit="10" pointer-events="stroke" style="stroke: light-dark(rgb(0, 0, 0), rgb(255, 255, 255));"/><path d="M 72.86 40.5 L 65.86 44 L 67.61 40.5 L 65.86 37 Z" fill="#000000" stroke="#000000" stroke-miterlimit="10" pointer-events="all" style="fill: light-dark(rgb(0, 0, 0), rgb(255, 255, 255)); stroke: light-dark(rgb(0, 0, 0), rgb(255, 255, 255));"/></g></g><g data-cell-id="P8yycNXyzoiEeMhcW1G3-3"><g><path d="M 20.78 62.87 L 1.88 62.87 C 1.19 62.87 0.63 62.31 0.63 61.62 L 0.63 17.38 C 0.63 16.69 1.19 16.13 1.88 16.13 L 20.78 16.13 C 21.47 16.13 22.03 16.69 22.03 17.38 L 22.03 61.62 C 22.03 62.31 21.47 62.87 20.78 62.87 Z" fill="#ededed" stroke="none" pointer-events="all" style="fill: light-dark(rgb(237, 237, 237), rgb(33, 33, 33));"/><path d="M 11.33 18.21 C 10.18 18.21 9.25 19.14 9.25 20.28 C 9.25 21.43 10.18 22.36 11.33 22.36 C 12.47 22.36 13.4 21.43 13.4 20.28 C 13.4 19.14 12.47 18.21 11.33 18.21 Z M 18.59 55.28 L 4.07 55.28 C 3.74 55.28 3.47 55.53 3.44 55.85 C 3.44 55.87 3.44 55.89 3.44 55.9 C 3.44 56.25 3.72 56.53 4.07 56.53 L 18.58 56.53 C 18.93 56.53 19.21 56.25 19.21 55.9 C 19.21 55.56 18.93 55.28 18.59 55.28 Z M 18.59 51.53 L 4.07 51.53 C 3.72 51.53 3.44 51.81 3.44 52.16 C 3.44 52.5 3.72 52.78 4.07 52.78 L 18.58 52.78 C 18.93 52.78 19.21 52.5 19.21 52.16 C 19.21 51.81 18.93 51.53 18.59 51.53 Z M 18.59 47.79 L 4.07 47.79 C 3.72 47.79 3.44 48.07 3.44 48.41 C 3.44 48.76 3.72 49.04 4.07 49.04 L 18.58 49.04 C 18.93 49.04 19.21 48.76 19.21 48.41 C 19.21 48.07 18.93 47.79 18.59 47.79 Z M 18.59 44.04 L 4.07 44.04 C 3.72 44.04 3.44 44.32 3.44 44.66 C 3.44 45.01 3.72 45.29 4.07 45.29 L 18.58 45.29 C 18.93 45.29 19.21 45.01 19.21 44.66 C 19.21 44.32 18.93 44.04 18.59 44.04 Z M 18.59 40.29 L 4.07 40.29 C 3.72 40.29 3.44 40.57 3.44 40.92 C 3.44 41.26 3.72 41.54 4.07 41.54 L 18.58 41.54 C 18.93 41.54 19.21 41.26 19.21 40.92 C 19.21 40.57 18.93 40.29 18.59 40.29 Z M 4.07 41.54 L 18.58 41.54 C 18.93 41.54 19.21 41.26 19.21 40.92 C 19.21 40.57 18.93 40.29 18.58 40.29 L 4.07 40.29 C 3.72 40.29 3.44 40.57 3.44 40.92 C 3.44 41.26 3.72 41.54 4.07 41.54 Z M 18.59 44.04 L 4.07 44.04 C 3.72 44.04 3.44 44.32 3.44 44.66 C 3.44 45.01 3.72 45.29 4.07 45.29 L 18.58 45.29 C 18.93 45.29 19.21 45.01 19.21 44.66 C 19.21 44.32 18.93 44.04 18.59 44.04 Z M 18.59 47.79 L 4.07 47.79 C 3.72 47.79 3.44 48.07 3.44 48.41 C 3.44 48.76 3.72 49.04 4.07 49.04 L 18.58 49.04 C 18.93 49.04 19.21 48.76 19.21 48.41 C 19.21 48.07 18.93 47.79 18.59 47.79 Z M 18.59 51.53 L 4.07 51.53 C 3.72 51.53 3.44 51.81 3.44 52.16 C 3.44 52.5 3.72 52.78 4.07 52.78 L 18.58 52.78 C 18.93 52.78 19.21 52.5 19.21 52.16 C 19.21 51.81 18.93 51.53 18.59 51.53 Z M 18.59 55.28 L 4.07 55.28 C 3.74 55.28 3.47 55.53 3.44 55.85 C 3.44 55.87 3.44 55.89 3.44 55.9 C 3.44 56.25 3.72 56.53 4.07 56.53 L 18.58 56.53 C 18.93 56.53 19.21 56.25 19.21 55.9 C 19.21 55.56 18.93 55.28 18.59 55.28 Z M 11.33 22.36 C 12.47 22.36 13.4 21.43 13.4 20.28 C 13.4 19.14 12.47 18.21 11.33 18.21 C 10.18 18.21 9.25 19.14 9.25 20.28 C 9.25 21.43 10.18 22.36 11.33 22.36 Z M 22.13 16.09 C 22.11 16.07 22.09 16.05 22.07 16.02 C 21.73 15.71 21.28 15.51 20.78 15.51 L 1.88 15.51 C 0.84 15.51 0 16.35 0 17.38 L 0 61.62 C 0 62.1 0.18 62.53 0.47 62.86 C 0.52 62.92 0.58 62.98 0.64 63.03 L 0.64 63.03 C 0.94 63.29 1.33 63.46 1.76 63.49 L 1.76 64.86 C 1.76 65.02 1.82 65.18 1.93 65.29 L 1.95 65.31 C 2.06 65.41 2.22 65.48 2.38 65.48 L 20.27 65.48 C 20.61 65.48 20.89 65.2 20.89 64.86 L 20.89 63.49 C 21.87 63.43 22.65 62.62 22.65 61.62 L 22.65 17.38 C 22.65 16.88 22.46 16.43 22.13 16.09 Z M 21.4 61.62 C 21.4 61.97 21.12 62.25 20.78 62.25 L 1.88 62.25 C 1.53 62.25 1.25 61.97 1.25 61.62 L 1.25 17.38 C 1.25 17.04 1.53 16.76 1.88 16.76 L 20.78 16.76 C 21.12 16.76 21.4 17.04 21.4 17.38 L 21.4 61.62 Z M 18.59 40.29 L 4.07 40.29 C 3.72 40.29 3.44 40.57 3.44 40.92 C 3.44 41.26 3.72 41.54 4.07 41.54 L 18.58 41.54 C 18.93 41.54 19.21 41.26 19.21 40.92 C 19.21 40.57 18.93 40.29 18.59 40.29 Z M 18.59 44.04 L 4.07 44.04 C 3.72 44.04 3.44 44.32 3.44 44.66 C 3.44 45.01 3.72 45.29 4.07 45.29 L 18.58 45.29 C 18.93 45.29 19.21 45.01 19.21 44.66 C 19.21 44.32 18.93 44.04 18.59 44.04 Z M 18.59 47.79 L 4.07 47.79 C 3.72 47.79 3.44 48.07 3.44 48.41 C 3.44 48.76 3.72 49.04 4.07 49.04 L 18.58 49.04 C 18.93 49.04 19.21 48.76 19.21 48.41 C 19.21 48.07 18.93 47.79 18.59 47.79 Z M 18.59 51.53 L 4.07 51.53 C 3.72 51.53 3.44 51.81 3.44 52.16 C 3.44 52.5 3.72 52.78 4.07 52.78 L 18.58 52.78 C 18.93 52.78 19.21 52.5 19.21 52.16 C 19.21 51.81 18.93 51.53 18.59 51.53 Z M 18.59 55.28 L 4.07 55.28 C 3.74 55.28 3.47 55.53 3.44 55.85 C 3.44 55.87 3.44 55.89 3.44 55.9 C 3.44 56.25 3.72 56.53 4.07 56.53 L 18.58 56.53 C 18.93 56.53 19.21 56.25 19.21 55.9 C 19.21 55.56 18.93 55.28 18.59 55.28 Z M 11.33 22.36 C 12.47 22.36 13.4 21.43 13.4 20.28 C 13.4 19.14 12.47 18.21 11.33 18.21 C 10.18 18.21 9.25 19.14 9.25 20.28 C 9.25 21.43 10.18 22.36 11.33 22.36 Z M 11.33 18.21 C 10.18 18.21 9.25 19.14 9.25 20.28 C 9.25 21.43 10.18 22.36 11.33 22.36 C 12.47 22.36 13.4 21.43 13.4 20.28 C 13.4 19.14 12.47 18.21 11.33 18.21 Z M 18.59 55.28 L 4.07 55.28 C 3.74 55.28 3.47 55.53 3.44 55.85 C 3.44 55.87 3.44 55.89 3.44 55.9 C 3.44 56.25 3.72 56.53 4.07 56.53 L 18.58 56.53 C 18.93 56.53 19.21 56.25 19.21 55.9 C 19.21 55.56 18.93 55.28 18.59 55.28 Z M 18.59 51.53 L 4.07 51.53 C 3.72 51.53 3.44 51.81 3.44 52.16 C 3.44 52.5 3.72 52.78 4.07 52.78 L 18.58 52.78 C 18.93 52.78 19.21 52.5 19.21 52.16 C 19.21 51.81 18.93 51.53 18.59 51.53 Z M 18.59 47.79 L 4.07 47.79 C 3.72 47.79 3.44 48.07 3.44 48.41 C 3.44 48.76 3.72 49.04 4.07 49.04 L 18.58 49.04 C 18.93 49.04 19.21 48.76 19.21 48.41 C 19.21 48.07 18.93 47.79 18.59 47.79 Z M 18.59 44.04 L 4.07 44.04 C 3.72 44.04 3.44 44.32 3.44 44.66 C 3.44 45.01 3.72 45.29 4.07 45.29 L 18.58 45.29 C 18.93 45.29 19.21 45.01 19.21 44.66 C 19.21 44.32 18.93 44.04 18.59 44.04 Z M 18.59 40.29 L 4.07 40.29 C 3.72 40.29 3.44 40.57 3.44 40.92 C 3.44 41.26 3.72 41.54 4.07 41.54 L 18.58 41.54 C 18.93 41.54 19.21 41.26 19.21 40.92 C 19.21 40.57 18.93 40.29 18.59 40.29 Z M 18.59 55.28 L 4.07 55.28 C 3.74 55.28 3.47 55.53 3.44 55.85 C 3.44 55.87 3.44 55.89 3.44 55.9 C 3.44 56.25 3.72 56.53 4.07 56.53 L 18.58 56.53 C 18.93 56.53 19.21 56.25 19.21 55.9 C 19.21 55.56 18.93 55.28 18.59 55.28 Z M 18.59 51.53 L 4.07 51.53 C 3.72 51.53 3.44 51.81 3.44 52.16 C 3.44 52.5 3.72 52.78 4.07 52.78 L 18.58 52.78 C 18.93 52.78 19.21 52.5 19.21 52.16 C 19.21 51.81 18.93 51.53 18.59 51.53 Z M 18.59 47.79 L 4.07 47.79 C 3.72 47.79 3.44 48.07 3.44 48.41 C 3.44 48.76 3.72 49.04 4.07 49.04 L 18.58 49.04 C 18.93 49.04 19.21 48.76 19.21 48.41 C 19.21 48.07 18.93 47.79 18.59 47.79 Z M 18.59 44.04 L 4.07 44.04 C 3.72 44.04 3.44 44.32 3.44 44.66 C 3.44 45.01 3.72 45.29 4.07 45.29 L 18.58 45.29 C 18.93 45.29 19.21 45.01 19.21 44.66 C 19.21 44.32 18.93 44.04 18.59 44.04 Z M 18.59 40.29 L 4.07 40.29 C 3.72 40.29 3.44 40.57 3.44 40.92 C 3.44 41.26 3.72 41.54 4.07 41.54 L 18.58 41.54 C 18.93 41.54 19.21 41.26 19.21 40.92 C 19.21 40.57 18.93 40.29 18.59 40.29 Z M 11.33 18.21 C 10.18 18.21 9.25 19.14 9.25 20.28 C 9.25 21.43 10.18 22.36 11.33 22.36 C 12.47 22.36 13.4 21.43 13.4 20.28 C 13.4 19.14 12.47 18.21 11.33 18.21 Z" fill="#000000" stroke="none" pointer-events="all" style="fill: light-dark(rgb(0, 0, 0), rgb(237, 237, 237));"/></g></g><g data-cell-id="s-A93kwdWezKnEzQZUWk-1"><g><path d="M 53.97 0.5 L 153.97 0.5 L 173.97 40.5 L 153.97 80.5 L 53.97 80.5 L 73.97 40.5 Z" fill="url(#drawio-svg-irDGjyBESg3LroDN9FsU-gradient-light-dark_ededed_212121_-1-light-dark_5b6163_979c9e_-1-s-0)" stroke="#000000" stroke-miterlimit="10" pointer-events="all" style="fill: url(&quot;#drawio-svg-irDGjyBESg3LroDN9FsU-gradient-light-dark_ededed_212121_-1-light-dark_5b6163_979c9e_-1-s-0&quot;); stroke: light-dark(rgb(0, 0, 0), rgb(237, 237, 237));"/></g></g></g></g></g></svg>