<?xml version="1.0" encoding="UTF-8"?>
<!-- Do not edit this file with editors other than draw.io -->
<!DOCTYPE svg PUBLIC "-//W3C//DTD SVG 1.1//EN" "http://www.w3.org/Graphics/SVG/1.1/DTD/svg11.dtd">
<svg xmlns="http://www.w3.org/2000/svg" style="background: transparent; background-color: transparent; color-scheme: light dark;" xmlns:xlink="http://www.w3.org/1999/xlink" version="1.1" width="401px" height="120px" viewBox="-0.5 -0.5 401 120" content="&lt;mxfile host=&quot;app.diagrams.net&quot; agent=&quot;Mozilla/5.0 (Windows NT 10.0; Win64; x64) AppleWebKit/537.36 (KHTML, like Gecko) Chrome/139.0.0.0 Safari/537.36&quot; version=&quot;28.1.2&quot;&gt;&#10;  &lt;diagram name=&quot;Página-1&quot; id=&quot;ft_0UDdngxv1kpUVtpC5&quot;&gt;&#10;    &lt;mxGraphModel dx=&quot;1042&quot; dy=&quot;562&quot; grid=&quot;1&quot; gridSize=&quot;10&quot; guides=&quot;1&quot; tooltips=&quot;1&quot; connect=&quot;1&quot; arrows=&quot;1&quot; fold=&quot;1&quot; page=&quot;1&quot; pageScale=&quot;1&quot; pageWidth=&quot;827&quot; pageHeight=&quot;1169&quot; math=&quot;0&quot; shadow=&quot;0&quot;&gt;&#10;      &lt;root&gt;&#10;        &lt;mxCell id=&quot;0&quot; /&gt;&#10;        &lt;mxCell id=&quot;1&quot; parent=&quot;0&quot; /&gt;&#10;        &lt;mxCell id=&quot;P8yycNXyzoiEeMhcW1G3-1&quot; value=&quot;&quot; style=&quot;shape=mxgraph.networks2.icon;aspect=fixed;fillColor=#EDEDED;strokeColor=#000000;gradientColor=#5B6163;network2IconShadow=1;network2bgFillColor=none;labelPosition=center;verticalLabelPosition=bottom;align=center;verticalAlign=top;network2Icon=mxgraph.networks2.laptop;network2IconW=1;network2IconH=0.5734;&quot; parent=&quot;1&quot; vertex=&quot;1&quot;&gt;&#10;          &lt;mxGeometry x=&quot;440&quot; y=&quot;310&quot; width=&quot;50&quot; height=&quot;28.67&quot; as=&quot;geometry&quot; /&gt;&#10;        &lt;/mxCell&gt;&#10;        &lt;mxCell id=&quot;P8yycNXyzoiEeMhcW1G3-2&quot; value=&quot;&quot; style=&quot;shape=mxgraph.networks2.icon;aspect=fixed;fillColor=#EDEDED;strokeColor=#000000;gradientColor=#5B6163;network2IconShadow=1;network2bgFillColor=none;labelPosition=center;verticalLabelPosition=bottom;align=center;verticalAlign=top;network2Icon=mxgraph.networks2.pc;network2IconYOffset=-0.0593;network2IconW=0.9999;network2IconH=0.7096;&quot; parent=&quot;1&quot; vertex=&quot;1&quot;&gt;&#10;          &lt;mxGeometry x=&quot;320&quot; y=&quot;250&quot; width=&quot;49.995&quot; height=&quot;35.480000000000004&quot; as=&quot;geometry&quot; /&gt;&#10;        &lt;/mxCell&gt;&#10;        &lt;mxCell id=&quot;P8yycNXyzoiEeMhcW1G3-3&quot; value=&quot;&quot; style=&quot;shape=mxgraph.networks2.icon;aspect=fixed;fillColor=#EDEDED;strokeColor=#000000;gradientColor=#5B6163;network2IconShadow=1;network2bgFillColor=none;labelPosition=center;verticalLabelPosition=bottom;align=center;verticalAlign=top;network2Icon=mxgraph.networks2.desktop_pc;network2IconXOffset=-0.0034;network2IconYOffset=0.00035;network2IconW=0.453;network2IconH=0.9995;&quot; parent=&quot;1&quot; vertex=&quot;1&quot;&gt;&#10;          &lt;mxGeometry x=&quot;90&quot; y=&quot;220&quot; width=&quot;22.650000000000002&quot; height=&quot;49.975&quot; as=&quot;geometry&quot; /&gt;&#10;        &lt;/mxCell&gt;&#10;      &lt;/root&gt;&#10;    &lt;/mxGraphModel&gt;&#10;  &lt;/diagram&gt;&#10;&lt;/mxfile&gt;&#10;" resource="https://app.diagrams.net/#Hnobrecavalcante%2FLibra%2Fmain%2FC%C3%B3pia%20do%20Diagrama%20sem%20nome.drawio.svg"><defs/><g><g data-cell-id="0"><g data-cell-id="1"><g data-cell-id="P8yycNXyzoiEeMhcW1G3-1"><g><path d="M 396.75 118.16 L 353.25 118.16 C 351.73 118.16 350.5 116.94 350.5 115.41 L 350.5 114.38 C 350.5 114.24 350.61 114.13 350.75 114.13 L 399.25 114.13 C 399.39 114.13 399.5 114.24 399.5 114.38 L 399.5 115.41 C 399.5 116.94 398.27 118.16 396.75 118.16 Z M 394 91 L 356 91 C 355.99 91 355.98 91.02 355.98 91.03 L 355.98 112.89 C 355.98 112.9 355.99 112.91 356 112.91 L 394 112.91 C 394.01 112.91 394.02 112.9 394.02 112.89 L 394.02 91.03 C 394.02 91.02 394.01 91 394 91 Z" fill="#ededed" stroke="none" pointer-events="all" style="fill: light-dark(rgb(237, 237, 237), rgb(33, 33, 33));"/><path d="M 399.25 113.64 L 394.7 113.64 C 394.9 113.44 395.02 113.18 395.02 112.89 L 395.02 91.03 C 395.02 90.75 394.92 90.5 394.73 90.31 C 394.73 90.31 394.72 90.3 394.72 90.3 C 394.53 90.11 394.27 90 394 90 L 356 90 C 355.44 90 354.98 90.46 354.98 91.03 L 354.98 112.89 C 354.98 113.18 355.1 113.44 355.3 113.64 L 350.75 113.64 C 350.33 113.64 350 113.97 350 114.39 L 350 115.42 C 350 116.3 350.35 117.09 350.92 117.68 C 350.94 117.7 350.96 117.73 350.99 117.75 C 351.57 118.32 352.38 118.67 353.25 118.67 L 396.75 118.67 C 398.54 118.67 400 117.21 400 115.42 L 400 114.39 C 400 113.97 399.67 113.64 399.25 113.64 Z M 356.98 92 L 393.02 92 L 393.02 111.91 L 356.98 111.91 L 356.98 92 Z M 399 115.41 C 399 116.66 397.99 117.66 396.75 117.66 L 353.25 117.66 C 352.01 117.66 351 116.66 351 115.41 L 351 114.63 L 369.01 114.63 L 369.01 115.13 C 369.01 115.4 369.24 115.63 369.51 115.63 L 380.51 115.63 C 380.79 115.63 381.01 115.4 381.01 115.13 L 381.01 114.63 L 399 114.63 L 399 115.41 Z" fill="#000000" stroke="none" pointer-events="all" style="fill: light-dark(rgb(0, 0, 0), rgb(237, 237, 237));"/></g></g><g data-cell-id="P8yycNXyzoiEeMhcW1G3-2"><g><path d="M 259.67 47.93 L 230.89 47.93 C 230.62 47.93 230.39 47.7 230.39 47.43 L 230.39 30.8 C 230.39 30.53 230.62 30.3 230.89 30.3 L 259.67 30.3 C 259.94 30.3 260.17 30.53 260.17 30.8 L 260.17 47.43 C 260.17 47.7 259.94 47.93 259.67 47.93 Z M 259.98 63.99 L 259.98 57.12 C 259.98 56.57 259.53 56.12 258.98 56.12 L 231.53 56.12 C 230.97 56.12 230.53 56.57 230.53 57.12 L 230.53 63.98 C 230.53 64.53 230.97 64.98 231.53 64.98 L 258.98 64.98 C 259.54 64.99 259.98 64.53 259.98 63.99 Z M 278.5 31.02 L 265.38 31.02 C 265.1 31.02 264.88 31.25 264.88 31.52 L 264.88 62.55 C 264.88 62.82 265.1 63.05 265.38 63.05 L 278.5 63.05 C 278.77 63.05 279 62.82 279 62.55 L 279 31.52 C 279 31.25 278.77 31.02 278.5 31.02 Z" fill="#ededed" stroke="none" pointer-events="all" style="fill: light-dark(rgb(237, 237, 237), rgb(33, 33, 33));"/><path d="M 271.94 36.22 C 270.83 36.22 269.94 35.33 269.94 34.22 C 269.94 33.12 270.83 32.22 271.94 32.22 C 273.04 32.22 273.94 33.12 273.94 34.22 C 273.94 35.33 273.03 36.22 271.94 36.22 Z M 260.21 30.32 L 260.2 30.32 L 260.15 30.27 L 260.14 30.25 C 259.97 30.1 259.74 30 259.48 30 L 231 30 C 230.45 30 230 30.45 230 31 L 230 47.23 C 230 47.51 230.11 47.75 230.28 47.93 L 230.3 47.95 C 230.48 48.13 230.72 48.23 231 48.23 L 242.24 48.23 L 242.24 51.21 L 238.63 51.21 C 238.35 51.21 238.13 51.44 238.13 51.71 L 238.13 52.05 C 238.13 52.33 238.35 52.55 238.63 52.55 L 251.92 52.55 C 252.19 52.55 252.42 52.33 252.42 52.05 L 252.42 51.71 C 252.42 51.44 252.19 51.21 251.92 51.21 L 248.32 51.21 L 248.32 48.23 L 259.48 48.23 C 260.02 48.23 260.48 47.79 260.48 47.23 L 260.48 31 C 260.48 30.74 260.38 30.5 260.21 30.32 Z M 259.48 47.23 L 231 47.23 L 231 31 L 259.48 31 L 259.48 47.23 C 259.48 47.23 259.48 47.23 259.48 47.23 Z M 277.08 58.18 L 266.79 58.18 C 266.79 58.18 266.79 58.18 266.79 58.18 C 266.51 58.18 266.29 58.4 266.29 58.68 C 266.29 58.95 266.51 59.18 266.79 59.18 L 277.08 59.18 C 277.08 59.18 277.08 59.18 277.08 59.18 C 277.36 59.18 277.58 58.96 277.58 58.68 C 277.58 58.41 277.36 58.18 277.08 58.18 Z M 277.08 55.53 L 266.79 55.52 C 266.79 55.52 266.79 55.52 266.79 55.52 C 266.51 55.52 266.29 55.75 266.29 56.02 C 266.29 56.3 266.51 56.52 266.79 56.52 L 277.08 56.53 C 277.08 56.53 277.08 56.53 277.08 56.53 C 277.36 56.53 277.58 56.3 277.58 56.03 C 277.58 55.75 277.36 55.53 277.08 55.53 Z M 277.08 52.87 L 266.79 52.86 L 266.79 52.86 C 266.51 52.86 266.29 53.09 266.29 53.36 C 266.29 53.64 266.51 53.86 266.79 53.86 L 277.08 53.87 C 277.08 53.87 277.08 53.87 277.08 53.87 C 277.36 53.87 277.58 53.64 277.58 53.37 C 277.58 53.09 277.36 52.87 277.08 52.87 Z M 277.08 50.2 L 266.79 50.2 C 266.79 50.2 266.79 50.2 266.79 50.2 C 266.51 50.2 266.29 50.43 266.29 50.7 C 266.29 50.98 266.51 51.2 266.79 51.2 L 277.08 51.2 C 277.08 51.2 277.08 51.2 277.08 51.2 C 277.36 51.2 277.58 50.98 277.58 50.7 C 277.58 50.43 277.36 50.2 277.08 50.2 Z M 277.08 47.55 L 266.79 47.54 L 266.79 47.54 C 266.51 47.54 266.29 47.77 266.29 48.04 C 266.29 48.32 266.51 48.54 266.79 48.54 L 277.08 48.55 C 277.08 48.55 277.08 48.55 277.08 48.55 C 277.36 48.55 277.58 48.32 277.58 48.05 C 277.58 47.77 277.36 47.55 277.08 47.55 Z M 266.79 48.54 L 277.08 48.55 C 277.08 48.55 277.08 48.55 277.08 48.55 C 277.36 48.55 277.58 48.32 277.58 48.05 C 277.58 47.77 277.36 47.55 277.08 47.55 L 266.79 47.54 L 266.79 47.54 C 266.51 47.54 266.29 47.77 266.29 48.04 C 266.29 48.32 266.51 48.54 266.79 48.54 Z M 277.08 50.2 L 266.79 50.2 C 266.79 50.2 266.79 50.2 266.79 50.2 C 266.51 50.2 266.29 50.43 266.29 50.7 C 266.29 50.98 266.51 51.2 266.79 51.2 L 277.08 51.2 C 277.08 51.2 277.08 51.2 277.08 51.2 C 277.36 51.2 277.58 50.98 277.58 50.7 C 277.58 50.43 277.36 50.2 277.08 50.2 Z M 277.08 52.87 L 266.79 52.86 L 266.79 52.86 C 266.51 52.86 266.29 53.09 266.29 53.36 C 266.29 53.64 266.51 53.86 266.79 53.86 L 277.08 53.87 C 277.08 53.87 277.08 53.87 277.08 53.87 C 277.36 53.87 277.58 53.64 277.58 53.37 C 277.58 53.09 277.36 52.87 277.08 52.87 Z M 277.08 55.53 L 266.79 55.52 C 266.79 55.52 266.79 55.52 266.79 55.52 C 266.51 55.52 266.29 55.75 266.29 56.02 C 266.29 56.3 266.51 56.52 266.79 56.52 L 277.08 56.53 C 277.08 56.53 277.08 56.53 277.08 56.53 C 277.36 56.53 277.58 56.3 277.58 56.03 C 277.58 55.75 277.36 55.53 277.08 55.53 Z M 277.08 58.18 L 266.79 58.18 C 266.79 58.18 266.79 58.18 266.79 58.18 C 266.51 58.18 266.29 58.4 266.29 58.68 C 266.29 58.95 266.51 59.18 266.79 59.18 L 277.08 59.18 C 277.08 59.18 277.08 59.18 277.08 59.18 C 277.36 59.18 277.58 58.96 277.58 58.68 C 277.58 58.41 277.36 58.18 277.08 58.18 Z M 279.64 30.56 C 279.58 30.49 279.52 30.43 279.45 30.37 C 279.19 30.15 278.86 30.02 278.5 30.02 L 265.38 30.02 C 264.55 30.02 263.88 30.7 263.88 31.52 L 263.88 62.55 C 263.88 63.29 264.43 63.92 265.14 64.03 L 265.14 64.98 C 265.14 65.25 265.37 65.48 265.64 65.48 L 278.23 65.48 C 278.5 65.48 278.73 65.25 278.73 64.98 L 278.73 64.03 C 279.44 63.91 280 63.29 280 62.55 L 280 31.52 C 280 31.16 279.86 30.82 279.64 30.56 Z M 279 62.55 C 279 62.82 278.77 63.05 278.5 63.05 L 265.38 63.05 C 265.1 63.05 264.88 62.82 264.88 62.55 L 264.88 31.52 C 264.88 31.25 265.1 31.02 265.38 31.02 L 278.5 31.02 C 278.77 31.02 279 31.25 279 31.52 L 279 62.55 Z M 277.08 47.55 L 266.79 47.54 L 266.79 47.54 C 266.51 47.54 266.29 47.77 266.29 48.04 C 266.29 48.32 266.51 48.54 266.79 48.54 L 277.08 48.55 C 277.08 48.55 277.08 48.55 277.08 48.55 C 277.36 48.55 277.58 48.32 277.58 48.05 C 277.58 47.77 277.36 47.55 277.08 47.55 Z M 277.08 50.2 L 266.79 50.2 C 266.79 50.2 266.79 50.2 266.79 50.2 C 266.51 50.2 266.29 50.43 266.29 50.7 C 266.29 50.98 266.51 51.2 266.79 51.2 L 277.08 51.2 C 277.08 51.2 277.08 51.2 277.08 51.2 C 277.36 51.2 277.58 50.98 277.58 50.7 C 277.58 50.43 277.36 50.2 277.08 50.2 Z M 277.08 52.87 L 266.79 52.86 L 266.79 52.86 C 266.51 52.86 266.29 53.09 266.29 53.36 C 266.29 53.64 266.51 53.86 266.79 53.86 L 277.08 53.87 C 277.08 53.87 277.08 53.87 277.08 53.87 C 277.36 53.87 277.58 53.64 277.58 53.37 C 277.58 53.09 277.36 52.87 277.08 52.87 Z M 277.08 55.53 L 266.79 55.52 C 266.79 55.52 266.79 55.52 266.79 55.52 C 266.51 55.52 266.29 55.75 266.29 56.02 C 266.29 56.3 266.51 56.52 266.79 56.52 L 277.08 56.53 C 277.08 56.53 277.08 56.53 277.08 56.53 C 277.36 56.53 277.58 56.3 277.58 56.03 C 277.58 55.75 277.36 55.53 277.08 55.53 Z M 277.08 58.18 L 266.79 58.18 C 266.79 58.18 266.79 58.18 266.79 58.18 C 266.51 58.18 266.29 58.4 266.29 58.68 C 266.29 58.95 266.51 59.18 266.79 59.18 L 277.08 59.18 C 277.08 59.18 277.08 59.18 277.08 59.18 C 277.36 59.18 277.58 58.96 277.58 58.68 C 277.58 58.41 277.36 58.18 277.08 58.18 Z M 277.08 58.18 L 266.79 58.18 C 266.79 58.18 266.79 58.18 266.79 58.18 C 266.51 58.18 266.29 58.4 266.29 58.68 C 266.29 58.95 266.51 59.18 266.79 59.18 L 277.08 59.18 C 277.08 59.18 277.08 59.18 277.08 59.18 C 277.36 59.18 277.58 58.96 277.58 58.68 C 277.58 58.41 277.36 58.18 277.08 58.18 Z M 277.08 55.53 L 266.79 55.52 C 266.79 55.52 266.79 55.52 266.79 55.52 C 266.51 55.52 266.29 55.75 266.29 56.02 C 266.29 56.3 266.51 56.52 266.79 56.52 L 277.08 56.53 C 277.08 56.53 277.08 56.53 277.08 56.53 C 277.36 56.53 277.58 56.3 277.58 56.03 C 277.58 55.75 277.36 55.53 277.08 55.53 Z M 277.08 52.87 L 266.79 52.86 L 266.79 52.86 C 266.51 52.86 266.29 53.09 266.29 53.36 C 266.29 53.64 266.51 53.86 266.79 53.86 L 277.08 53.87 C 277.08 53.87 277.08 53.87 277.08 53.87 C 277.36 53.87 277.58 53.64 277.58 53.37 C 277.58 53.09 277.36 52.87 277.08 52.87 Z M 277.08 50.2 L 266.79 50.2 C 266.79 50.2 266.79 50.2 266.79 50.2 C 266.51 50.2 266.29 50.43 266.29 50.7 C 266.29 50.98 266.51 51.2 266.79 51.2 L 277.08 51.2 C 277.08 51.2 277.08 51.2 277.08 51.2 C 277.36 51.2 277.58 50.98 277.58 50.7 C 277.58 50.43 277.36 50.2 277.08 50.2 Z M 277.08 47.55 L 266.79 47.54 L 266.79 47.54 C 266.51 47.54 266.29 47.77 266.29 48.04 C 266.29 48.32 266.51 48.54 266.79 48.54 L 277.08 48.55 C 277.08 48.55 277.08 48.55 277.08 48.55 C 277.36 48.55 277.58 48.32 277.58 48.05 C 277.58 47.77 277.36 47.55 277.08 47.55 Z M 277.08 47.55 L 266.79 47.54 L 266.79 47.54 C 266.51 47.54 266.29 47.77 266.29 48.04 C 266.29 48.32 266.51 48.54 266.79 48.54 L 277.08 48.55 C 277.08 48.55 277.08 48.55 277.08 48.55 C 277.36 48.55 277.58 48.32 277.58 48.05 C 277.58 47.77 277.36 47.55 277.08 47.55 Z M 277.08 50.2 L 266.79 50.2 C 266.79 50.2 266.79 50.2 266.79 50.2 C 266.51 50.2 266.29 50.43 266.29 50.7 C 266.29 50.98 266.51 51.2 266.79 51.2 L 277.08 51.2 C 277.08 51.2 277.08 51.2 277.08 51.2 C 277.36 51.2 277.58 50.98 277.58 50.7 C 277.58 50.43 277.36 50.2 277.08 50.2 Z M 277.08 52.87 L 266.79 52.86 L 266.79 52.86 C 266.51 52.86 266.29 53.09 266.29 53.36 C 266.29 53.64 266.51 53.86 266.79 53.86 L 277.08 53.87 C 277.08 53.87 277.08 53.87 277.08 53.87 C 277.36 53.87 277.58 53.64 277.58 53.37 C 277.58 53.09 277.36 52.87 277.08 52.87 Z M 277.08 55.53 L 266.79 55.52 C 266.79 55.52 266.79 55.52 266.79 55.52 C 266.51 55.52 266.29 55.75 266.29 56.02 C 266.29 56.3 266.51 56.52 266.79 56.52 L 277.08 56.53 C 277.08 56.53 277.08 56.53 277.08 56.53 C 277.36 56.53 277.58 56.3 277.58 56.03 C 277.58 55.75 277.36 55.53 277.08 55.53 Z M 277.08 58.18 L 266.79 58.18 C 266.79 58.18 266.79 58.18 266.79 58.18 C 266.51 58.18 266.29 58.4 266.29 58.68 C 266.29 58.95 266.51 59.18 266.79 59.18 L 277.08 59.18 C 277.08 59.18 277.08 59.18 277.08 59.18 C 277.36 59.18 277.58 58.96 277.58 58.68 C 277.58 58.41 277.36 58.18 277.08 58.18 Z M 251.13 57.68 L 232.76 57.68 C 232.49 57.68 232.26 57.9 232.26 58.18 C 232.26 58.45 232.49 58.68 232.76 58.68 L 251.14 58.68 C 251.41 58.68 251.64 58.45 251.64 58.18 C 251.63 57.9 251.41 57.68 251.13 57.68 Z M 250.67 59.63 L 233.31 59.63 C 232.75 59.63 232.31 60.08 232.31 60.63 L 232.31 62.57 C 232.31 63.12 232.75 63.57 233.31 63.57 L 250.67 63.57 C 251.22 63.57 251.67 63.12 251.67 62.57 L 251.67 60.63 C 251.67 60.08 251.22 59.63 250.67 59.63 Z M 257.54 57.58 L 254.54 57.58 C 253.99 57.58 253.54 58.03 253.54 58.58 L 253.54 62.58 C 253.54 63.13 253.99 63.58 254.54 63.58 L 257.54 63.58 C 258.09 63.58 258.54 63.13 258.54 62.58 L 258.54 58.58 C 258.54 58.02 258.1 57.58 257.54 57.58 Z M 257.54 57.58 L 254.54 57.58 C 253.99 57.58 253.54 58.03 253.54 58.58 L 253.54 62.58 C 253.54 63.13 253.99 63.58 254.54 63.58 L 257.54 63.58 C 258.09 63.58 258.54 63.13 258.54 62.58 L 258.54 58.58 C 258.54 58.02 258.1 57.58 257.54 57.58 Z M 250.67 59.63 L 233.31 59.63 C 232.75 59.63 232.31 60.08 232.31 60.63 L 232.31 62.57 C 232.31 63.12 232.75 63.57 233.31 63.57 L 250.67 63.57 C 251.22 63.57 251.67 63.12 251.67 62.57 L 251.67 60.63 C 251.67 60.08 251.22 59.63 250.67 59.63 Z M 232.76 58.68 L 251.14 58.68 C 251.41 58.68 251.64 58.45 251.64 58.18 C 251.64 57.9 251.41 57.68 251.14 57.68 L 232.76 57.68 C 232.49 57.68 232.26 57.9 232.26 58.18 C 232.26 58.45 232.49 58.68 232.76 58.68 Z M 258.98 55.62 L 231.53 55.62 C 230.7 55.62 230.03 56.3 230.03 57.12 L 230.03 63.98 C 230.03 64.38 230.18 64.74 230.44 65.01 L 230.5 65.07 C 230.76 65.33 231.13 65.48 231.53 65.48 L 258.98 65.48 C 259.81 65.48 260.48 64.81 260.48 63.98 L 260.48 57.12 C 260.48 56.3 259.81 55.62 258.98 55.62 Z M 259.48 63.99 C 259.48 64.26 259.25 64.49 258.98 64.49 L 231.53 64.49 C 231.25 64.49 231.03 64.26 231.03 63.99 L 231.03 57.12 C 231.03 56.85 231.25 56.62 231.53 56.62 L 258.98 56.62 C 259.25 56.62 259.48 56.85 259.48 57.12 L 259.48 63.99 Z M 257.54 57.58 L 254.54 57.58 C 253.99 57.58 253.54 58.03 253.54 58.58 L 253.54 62.58 C 253.54 63.13 253.99 63.58 254.54 63.58 L 257.54 63.58 C 258.09 63.58 258.54 63.13 258.54 62.58 L 258.54 58.58 C 258.54 58.02 258.1 57.58 257.54 57.58 Z M 250.67 59.63 L 233.31 59.63 C 232.75 59.63 232.31 60.08 232.31 60.63 L 232.31 62.57 C 232.31 63.12 232.75 63.57 233.31 63.57 L 250.67 63.57 C 251.22 63.57 251.67 63.12 251.67 62.57 L 251.67 60.63 C 251.67 60.08 251.22 59.63 250.67 59.63 Z M 232.76 58.68 L 251.14 58.68 C 251.41 58.68 251.64 58.45 251.64 58.18 C 251.64 57.9 251.41 57.68 251.14 57.68 L 232.76 57.68 C 232.49 57.68 232.26 57.9 232.26 58.18 C 232.26 58.45 232.49 58.68 232.76 58.68 Z M 251.13 57.68 L 232.76 57.68 C 232.49 57.68 232.26 57.9 232.26 58.18 C 232.26 58.45 232.49 58.68 232.76 58.68 L 251.14 58.68 C 251.41 58.68 251.64 58.45 251.64 58.18 C 251.63 57.9 251.41 57.68 251.13 57.68 Z M 250.67 59.63 L 233.31 59.63 C 232.75 59.63 232.31 60.08 232.31 60.63 L 232.31 62.57 C 232.31 63.12 232.75 63.57 233.31 63.57 L 250.67 63.57 C 251.22 63.57 251.67 63.12 251.67 62.57 L 251.67 60.63 C 251.67 60.08 251.22 59.63 250.67 59.63 Z M 257.54 57.58 L 254.54 57.58 C 253.99 57.58 253.54 58.03 253.54 58.58 L 253.54 62.58 C 253.54 63.13 253.99 63.58 254.54 63.58 L 257.54 63.58 C 258.09 63.58 258.54 63.13 258.54 62.58 L 258.54 58.58 C 258.54 58.02 258.1 57.58 257.54 57.58 Z M 250.67 59.63 L 233.31 59.63 C 232.75 59.63 232.31 60.08 232.31 60.63 L 232.31 62.57 C 232.31 63.12 232.75 63.57 233.31 63.57 L 250.67 63.57 C 251.22 63.57 251.67 63.12 251.67 62.57 L 251.67 60.63 C 251.67 60.08 251.22 59.63 250.67 59.63 Z M 257.54 57.58 L 254.54 57.58 C 253.99 57.58 253.54 58.03 253.54 58.58 L 253.54 62.58 C 253.54 63.13 253.99 63.58 254.54 63.58 L 257.54 63.58 C 258.09 63.58 258.54 63.13 258.54 62.58 L 258.54 58.58 C 258.54 58.02 258.1 57.58 257.54 57.58 Z M 251.13 57.68 L 232.76 57.68 C 232.49 57.68 232.26 57.9 232.26 58.18 C 232.26 58.45 232.49 58.68 232.76 58.68 L 251.14 58.68 C 251.41 58.68 251.64 58.45 251.64 58.18 C 251.63 57.9 251.41 57.68 251.13 57.68 Z" fill="#000000" stroke="none" pointer-events="all" style="fill: light-dark(rgb(0, 0, 0), rgb(237, 237, 237));"/></g></g><g data-cell-id="P8yycNXyzoiEeMhcW1G3-3"><g><path d="M 20.78 47.37 L 1.88 47.37 C 1.19 47.37 0.63 46.8 0.63 46.12 L 0.63 1.88 C 0.63 1.19 1.19 0.63 1.88 0.63 L 20.78 0.63 C 21.47 0.63 22.03 1.19 22.03 1.88 L 22.03 46.12 C 22.03 46.8 21.47 47.37 20.78 47.37 Z" fill="#ededed" stroke="none" pointer-events="all" style="fill: light-dark(rgb(237, 237, 237), rgb(33, 33, 33));"/><path d="M 11.33 2.7 C 10.18 2.7 9.25 3.63 9.25 4.78 C 9.25 5.92 10.18 6.85 11.33 6.85 C 12.47 6.85 13.4 5.92 13.4 4.78 C 13.4 3.63 12.47 2.7 11.33 2.7 Z M 18.59 39.77 L 4.07 39.77 C 3.74 39.77 3.47 40.02 3.44 40.34 C 3.44 40.36 3.44 40.38 3.44 40.4 C 3.44 40.74 3.72 41.02 4.07 41.02 L 18.58 41.02 C 18.93 41.02 19.21 40.74 19.21 40.4 C 19.21 40.05 18.93 39.77 18.59 39.77 Z M 18.59 36.02 L 4.07 36.02 C 3.72 36.02 3.44 36.3 3.44 36.65 C 3.44 36.99 3.72 37.27 4.07 37.27 L 18.58 37.27 C 18.93 37.27 19.21 36.99 19.21 36.65 C 19.21 36.3 18.93 36.02 18.59 36.02 Z M 18.59 32.28 L 4.07 32.28 C 3.72 32.28 3.44 32.56 3.44 32.91 C 3.44 33.25 3.72 33.53 4.07 33.53 L 18.58 33.53 C 18.93 33.53 19.21 33.25 19.21 32.91 C 19.21 32.56 18.93 32.28 18.59 32.28 Z M 18.59 28.53 L 4.07 28.53 C 3.72 28.53 3.44 28.81 3.44 29.16 C 3.44 29.5 3.72 29.78 4.07 29.78 L 18.58 29.78 C 18.93 29.78 19.21 29.5 19.21 29.16 C 19.21 28.81 18.93 28.53 18.59 28.53 Z M 18.59 24.79 L 4.07 24.79 C 3.72 24.79 3.44 25.07 3.44 25.41 C 3.44 25.75 3.72 26.04 4.07 26.04 L 18.58 26.04 C 18.93 26.04 19.21 25.75 19.21 25.41 C 19.21 25.07 18.93 24.79 18.59 24.79 Z M 4.07 26.04 L 18.58 26.04 C 18.93 26.04 19.21 25.75 19.21 25.41 C 19.21 25.07 18.93 24.79 18.58 24.79 L 4.07 24.79 C 3.72 24.79 3.44 25.07 3.44 25.41 C 3.44 25.75 3.72 26.04 4.07 26.04 Z M 18.59 28.53 L 4.07 28.53 C 3.72 28.53 3.44 28.81 3.44 29.16 C 3.44 29.5 3.72 29.78 4.07 29.78 L 18.58 29.78 C 18.93 29.78 19.21 29.5 19.21 29.16 C 19.21 28.81 18.93 28.53 18.59 28.53 Z M 18.59 32.28 L 4.07 32.28 C 3.72 32.28 3.44 32.56 3.44 32.91 C 3.44 33.25 3.72 33.53 4.07 33.53 L 18.58 33.53 C 18.93 33.53 19.21 33.25 19.21 32.91 C 19.21 32.56 18.93 32.28 18.59 32.28 Z M 18.59 36.02 L 4.07 36.02 C 3.72 36.02 3.44 36.3 3.44 36.65 C 3.44 36.99 3.72 37.27 4.07 37.27 L 18.58 37.27 C 18.93 37.27 19.21 36.99 19.21 36.65 C 19.21 36.3 18.93 36.02 18.59 36.02 Z M 18.59 39.77 L 4.07 39.77 C 3.74 39.77 3.47 40.02 3.44 40.34 C 3.44 40.36 3.44 40.38 3.44 40.4 C 3.44 40.74 3.72 41.02 4.07 41.02 L 18.58 41.02 C 18.93 41.02 19.21 40.74 19.21 40.4 C 19.21 40.05 18.93 39.77 18.59 39.77 Z M 11.33 6.85 C 12.47 6.85 13.4 5.92 13.4 4.78 C 13.4 3.63 12.47 2.7 11.33 2.7 C 10.18 2.7 9.25 3.63 9.25 4.78 C 9.25 5.92 10.18 6.85 11.33 6.85 Z M 22.13 0.58 C 22.11 0.56 22.09 0.54 22.07 0.52 C 21.73 0.2 21.28 0 20.78 0 L 1.88 0 C 0.84 0 0 0.84 0 1.88 L 0 46.12 C 0 46.59 0.18 47.02 0.47 47.35 C 0.52 47.41 0.58 47.47 0.64 47.52 L 0.64 47.52 C 0.94 47.78 1.33 47.95 1.76 47.98 L 1.76 49.35 C 1.76 49.52 1.82 49.67 1.93 49.78 L 1.95 49.8 C 2.06 49.91 2.22 49.98 2.38 49.98 L 20.27 49.98 C 20.61 49.98 20.89 49.7 20.89 49.35 L 20.89 47.98 C 21.87 47.92 22.65 47.11 22.65 46.12 L 22.65 1.88 C 22.65 1.38 22.46 0.92 22.13 0.58 Z M 21.4 46.12 C 21.4 46.46 21.12 46.74 20.78 46.74 L 1.88 46.74 C 1.53 46.74 1.25 46.46 1.25 46.12 L 1.25 1.88 C 1.25 1.53 1.53 1.25 1.88 1.25 L 20.78 1.25 C 21.12 1.25 21.4 1.53 21.4 1.88 L 21.4 46.12 Z M 18.59 24.79 L 4.07 24.79 C 3.72 24.79 3.44 25.07 3.44 25.41 C 3.44 25.75 3.72 26.04 4.07 26.04 L 18.58 26.04 C 18.93 26.04 19.21 25.75 19.21 25.41 C 19.21 25.07 18.93 24.79 18.59 24.79 Z M 18.59 28.53 L 4.07 28.53 C 3.72 28.53 3.44 28.81 3.44 29.16 C 3.44 29.5 3.72 29.78 4.07 29.78 L 18.58 29.78 C 18.93 29.78 19.21 29.5 19.21 29.16 C 19.21 28.81 18.93 28.53 18.59 28.53 Z M 18.59 32.28 L 4.07 32.28 C 3.72 32.28 3.44 32.56 3.44 32.91 C 3.44 33.25 3.72 33.53 4.07 33.53 L 18.58 33.53 C 18.93 33.53 19.21 33.25 19.21 32.91 C 19.21 32.56 18.93 32.28 18.59 32.28 Z M 18.59 36.02 L 4.07 36.02 C 3.72 36.02 3.44 36.3 3.44 36.65 C 3.44 36.99 3.72 37.27 4.07 37.27 L 18.58 37.27 C 18.93 37.27 19.21 36.99 19.21 36.65 C 19.21 36.3 18.93 36.02 18.59 36.02 Z M 18.59 39.77 L 4.07 39.77 C 3.74 39.77 3.47 40.02 3.44 40.34 C 3.44 40.36 3.44 40.38 3.44 40.4 C 3.44 40.74 3.72 41.02 4.07 41.02 L 18.58 41.02 C 18.93 41.02 19.21 40.74 19.21 40.4 C 19.21 40.05 18.93 39.77 18.59 39.77 Z M 11.33 6.85 C 12.47 6.85 13.4 5.92 13.4 4.78 C 13.4 3.63 12.47 2.7 11.33 2.7 C 10.18 2.7 9.25 3.63 9.25 4.78 C 9.25 5.92 10.18 6.85 11.33 6.85 Z M 11.33 2.7 C 10.18 2.7 9.25 3.63 9.25 4.78 C 9.25 5.92 10.18 6.85 11.33 6.85 C 12.47 6.85 13.4 5.92 13.4 4.78 C 13.4 3.63 12.47 2.7 11.33 2.7 Z M 18.59 39.77 L 4.07 39.77 C 3.74 39.77 3.47 40.02 3.44 40.34 C 3.44 40.36 3.44 40.38 3.44 40.4 C 3.44 40.74 3.72 41.02 4.07 41.02 L 18.58 41.02 C 18.93 41.02 19.21 40.74 19.21 40.4 C 19.21 40.05 18.93 39.77 18.59 39.77 Z M 18.59 36.02 L 4.07 36.02 C 3.72 36.02 3.44 36.3 3.44 36.65 C 3.44 36.99 3.72 37.27 4.07 37.27 L 18.58 37.27 C 18.93 37.27 19.21 36.99 19.21 36.65 C 19.21 36.3 18.93 36.02 18.59 36.02 Z M 18.59 32.28 L 4.07 32.28 C 3.72 32.28 3.44 32.56 3.44 32.91 C 3.44 33.25 3.72 33.53 4.07 33.53 L 18.58 33.53 C 18.93 33.53 19.21 33.25 19.21 32.91 C 19.21 32.56 18.93 32.28 18.59 32.28 Z M 18.59 28.53 L 4.07 28.53 C 3.72 28.53 3.44 28.81 3.44 29.16 C 3.44 29.5 3.72 29.78 4.07 29.78 L 18.58 29.78 C 18.93 29.78 19.21 29.5 19.21 29.16 C 19.21 28.81 18.93 28.53 18.59 28.53 Z M 18.59 24.79 L 4.07 24.79 C 3.72 24.79 3.44 25.07 3.44 25.41 C 3.44 25.75 3.72 26.04 4.07 26.04 L 18.58 26.04 C 18.93 26.04 19.21 25.75 19.21 25.41 C 19.21 25.07 18.93 24.79 18.59 24.79 Z M 18.59 39.77 L 4.07 39.77 C 3.74 39.77 3.47 40.02 3.44 40.34 C 3.44 40.36 3.44 40.38 3.44 40.4 C 3.44 40.74 3.72 41.02 4.07 41.02 L 18.58 41.02 C 18.93 41.02 19.21 40.74 19.21 40.4 C 19.21 40.05 18.93 39.77 18.59 39.77 Z M 18.59 36.02 L 4.07 36.02 C 3.72 36.02 3.44 36.3 3.44 36.65 C 3.44 36.99 3.72 37.27 4.07 37.27 L 18.58 37.27 C 18.93 37.27 19.21 36.99 19.21 36.65 C 19.21 36.3 18.93 36.02 18.59 36.02 Z M 18.59 32.28 L 4.07 32.28 C 3.72 32.28 3.44 32.56 3.44 32.91 C 3.44 33.25 3.72 33.53 4.07 33.53 L 18.58 33.53 C 18.93 33.53 19.21 33.25 19.21 32.91 C 19.21 32.56 18.93 32.28 18.59 32.28 Z M 18.59 28.53 L 4.07 28.53 C 3.72 28.53 3.44 28.81 3.44 29.16 C 3.44 29.5 3.72 29.78 4.07 29.78 L 18.58 29.78 C 18.93 29.78 19.21 29.5 19.21 29.16 C 19.21 28.81 18.93 28.53 18.59 28.53 Z M 18.59 24.79 L 4.07 24.79 C 3.72 24.79 3.44 25.07 3.44 25.41 C 3.44 25.75 3.72 26.04 4.07 26.04 L 18.58 26.04 C 18.93 26.04 19.21 25.75 19.21 25.41 C 19.21 25.07 18.93 24.79 18.59 24.79 Z M 11.33 2.7 C 10.18 2.7 9.25 3.63 9.25 4.78 C 9.25 5.92 10.18 6.85 11.33 6.85 C 12.47 6.85 13.4 5.92 13.4 4.78 C 13.4 3.63 12.47 2.7 11.33 2.7 Z" fill="#000000" stroke="none" pointer-events="all" style="fill: light-dark(rgb(0, 0, 0), rgb(237, 237, 237));"/></g></g></g></g></g></svg>